<svg width="714" height="165" viewBox="0 0 714 165" fill="none" xmlns="http://www.w3.org/2000/svg">
<g clip-path="url(#clip0_1722_311)">
<mask id="mask0_1722_311" style="mask-type:alpha" maskUnits="userSpaceOnUse" x="0" y="-1" width="714" height="166">
<rect y="165" width="165" height="714" transform="rotate(-90 0 165)" fill="url(#paint0_linear_1722_311)"/>
</mask>
<g mask="url(#mask0_1722_311)">
<mask id="mask1_1722_311" style="mask-type:alpha" maskUnits="userSpaceOnUse" x="0" y="-1" width="714" height="166">
<rect x="714" y="-0.000244141" width="165" height="714" transform="rotate(90 714 -0.000244141)" fill="url(#paint1_linear_1722_311)"/>
</mask>
<g mask="url(#mask1_1722_311)">
<mask id="mask2_1722_311" style="mask-type:alpha" maskUnits="userSpaceOnUse" x="-435" y="-1" width="1584" height="213">
<rect x="-435" y="-0.000244141" width="1584" height="212" fill="url(#paint2_linear_1722_311)"/>
</mask>
<g mask="url(#mask2_1722_311)">
<rect x="-435" y="-0.000244141" width="1584" height="250" fill="white"/>
<rect opacity="0.1" x="335" y="-150" width="1080" height="512" rx="256" fill="url(#paint3_radial_1722_311)"/>
<rect opacity="0.1" x="-801" y="-150" width="1180" height="512" rx="256" fill="url(#paint4_radial_1722_311)"/>
<rect opacity="0.1" x="-641" y="-195" width="2032" height="437" rx="218.5" fill="url(#paint5_radial_1722_311)" fill-opacity="0.4"/>
<rect opacity="0.1" x="42" y="-165" width="501" height="342" rx="171" fill="url(#paint6_radial_1722_311)" fill-opacity="0.4"/>
</g>
</g>
</g>
<g filter="url(#filter0_dddd_1722_311)">
<rect x="302" y="40" width="110" height="112" rx="8" fill="white" fill-opacity="0.5"/>
</g>
<g filter="url(#filter1_dddd_1722_311)">
<rect x="301" y="40.2922" width="112" height="112" rx="12" fill="white" fill-opacity="0.5"/>
<rect x="300.5" y="39.7922" width="113" height="113" rx="12.5" stroke="white"/>
<g clip-path="url(#clip1_1722_311)">
<path d="M311.305 52.863V144.291H318.974C318.974 123.274 336.028 106.239 357.061 106.239C378.097 106.239 395.148 123.278 395.148 144.291H402.817V52.863H311.305Z" fill="white"/>
<path d="M356.974 124.634C346.105 124.634 337.297 133.434 337.297 144.291H376.647C376.651 133.438 367.843 124.634 356.974 124.634Z" fill="white"/>
<rect x="309.008" y="48.2922" width="95.9888" height="95.9992" rx="9" fill="white"/>
<path fill-rule="evenodd" clip-rule="evenodd" d="M309 52.2924C309 50.0832 310.791 48.2924 313 48.2924H400.989C403.198 48.2924 404.989 50.0832 404.989 52.2924V140.292C404.989 142.501 403.198 144.292 400.989 144.292H396.945C396.945 122.228 379.06 104.337 356.994 104.337C334.933 104.337 317.044 122.223 317.044 144.292H313C310.791 144.292 309 142.501 309 140.292V52.2924ZM336.263 144.292C336.263 132.892 345.502 123.653 356.902 123.653C368.303 123.653 377.542 132.896 377.538 144.292H336.263Z" fill="url(#paint7_linear_1722_311)"/>
</g>
</g>
</g>
<defs>
<filter id="filter0_dddd_1722_311" x="300" y="16" width="182" height="152" filterUnits="userSpaceOnUse" color-interpolation-filters="sRGB">
<feFlood flood-opacity="0" result="BackgroundImageFix"/>
<feColorMatrix in="SourceAlpha" type="matrix" values="0 0 0 0 0 0 0 0 0 0 0 0 0 0 0 0 0 0 127 0" result="hardAlpha"/>
<feOffset dx="5"/>
<feGaussianBlur stdDeviation="3.5"/>
<feColorMatrix type="matrix" values="0 0 0 0 0.92549 0 0 0 0 0.972549 0 0 0 0 0.980392 0 0 0 0.1 0"/>
<feBlend mode="normal" in2="BackgroundImageFix" result="effect1_dropShadow_1722_311"/>
<feColorMatrix in="SourceAlpha" type="matrix" values="0 0 0 0 0 0 0 0 0 0 0 0 0 0 0 0 0 0 127 0" result="hardAlpha"/>
<feOffset dx="13" dy="-1"/>
<feGaussianBlur stdDeviation="6.5"/>
<feColorMatrix type="matrix" values="0 0 0 0 0.92549 0 0 0 0 0.972549 0 0 0 0 0.980392 0 0 0 0.09 0"/>
<feBlend mode="normal" in2="effect1_dropShadow_1722_311" result="effect2_dropShadow_1722_311"/>
<feColorMatrix in="SourceAlpha" type="matrix" values="0 0 0 0 0 0 0 0 0 0 0 0 0 0 0 0 0 0 127 0" result="hardAlpha"/>
<feOffset dx="28" dy="-2"/>
<feGaussianBlur stdDeviation="8.5"/>
<feColorMatrix type="matrix" values="0 0 0 0 0.92549 0 0 0 0 0.972549 0 0 0 0 0.980392 0 0 0 0.05 0"/>
<feBlend mode="normal" in2="effect2_dropShadow_1722_311" result="effect3_dropShadow_1722_311"/>
<feColorMatrix in="SourceAlpha" type="matrix" values="0 0 0 0 0 0 0 0 0 0 0 0 0 0 0 0 0 0 127 0" result="hardAlpha"/>
<feOffset dx="50" dy="-4"/>
<feGaussianBlur stdDeviation="10"/>
<feColorMatrix type="matrix" values="0 0 0 0 0.92549 0 0 0 0 0.972549 0 0 0 0 0.980392 0 0 0 0.01 0"/>
<feBlend mode="normal" in2="effect3_dropShadow_1722_311" result="effect4_dropShadow_1722_311"/>
<feBlend mode="normal" in="SourceGraphic" in2="effect4_dropShadow_1722_311" result="shape"/>
</filter>
<filter id="filter1_dddd_1722_311" x="230" y="15.2922" width="188" height="154" filterUnits="userSpaceOnUse" color-interpolation-filters="sRGB">
<feFlood flood-opacity="0" result="BackgroundImageFix"/>
<feColorMatrix in="SourceAlpha" type="matrix" values="0 0 0 0 0 0 0 0 0 0 0 0 0 0 0 0 0 0 127 0" result="hardAlpha"/>
<feOffset dx="-3"/>
<feGaussianBlur stdDeviation="3.5"/>
<feColorMatrix type="matrix" values="0 0 0 0 0.854902 0 0 0 0 0.823529 0 0 0 0 0.913725 0 0 0 0.1 0"/>
<feBlend mode="normal" in2="BackgroundImageFix" result="effect1_dropShadow_1722_311"/>
<feColorMatrix in="SourceAlpha" type="matrix" values="0 0 0 0 0 0 0 0 0 0 0 0 0 0 0 0 0 0 127 0" result="hardAlpha"/>
<feOffset dx="-13" dy="-1"/>
<feGaussianBlur stdDeviation="6.5"/>
<feColorMatrix type="matrix" values="0 0 0 0 0.854902 0 0 0 0 0.823529 0 0 0 0 0.913725 0 0 0 0.09 0"/>
<feBlend mode="normal" in2="effect1_dropShadow_1722_311" result="effect2_dropShadow_1722_311"/>
<feColorMatrix in="SourceAlpha" type="matrix" values="0 0 0 0 0 0 0 0 0 0 0 0 0 0 0 0 0 0 127 0" result="hardAlpha"/>
<feOffset dx="-28" dy="-2"/>
<feGaussianBlur stdDeviation="8.5"/>
<feColorMatrix type="matrix" values="0 0 0 0 0.854902 0 0 0 0 0.823529 0 0 0 0 0.913725 0 0 0 0.05 0"/>
<feBlend mode="normal" in2="effect2_dropShadow_1722_311" result="effect3_dropShadow_1722_311"/>
<feColorMatrix in="SourceAlpha" type="matrix" values="0 0 0 0 0 0 0 0 0 0 0 0 0 0 0 0 0 0 127 0" result="hardAlpha"/>
<feOffset dx="-50" dy="-4"/>
<feGaussianBlur stdDeviation="10"/>
<feColorMatrix type="matrix" values="0 0 0 0 0.854902 0 0 0 0 0.823529 0 0 0 0 0.913725 0 0 0 0.01 0"/>
<feBlend mode="normal" in2="effect3_dropShadow_1722_311" result="effect4_dropShadow_1722_311"/>
<feBlend mode="normal" in="SourceGraphic" in2="effect4_dropShadow_1722_311" result="shape"/>
</filter>
<linearGradient id="paint0_linear_1722_311" x1="83" y1="165" x2="83" y2="879" gradientUnits="userSpaceOnUse">
<stop offset="0.873311" stop-color="white"/>
<stop offset="1" stop-color="white" stop-opacity="0"/>
</linearGradient>
<linearGradient id="paint1_linear_1722_311" x1="796" y1="-0.000247725" x2="796" y2="714" gradientUnits="userSpaceOnUse">
<stop offset="0.874029" stop-color="white"/>
<stop offset="1" stop-color="white" stop-opacity="0"/>
</linearGradient>
<linearGradient id="paint2_linear_1722_311" x1="357" y1="-0.000244141" x2="357" y2="140" gradientUnits="userSpaceOnUse">
<stop offset="0.387149" stop-color="white"/>
<stop offset="1" stop-color="white" stop-opacity="0"/>
</linearGradient>
<radialGradient id="paint3_radial_1722_311" cx="0" cy="0" r="1" gradientUnits="userSpaceOnUse" gradientTransform="translate(875 106) rotate(-180) scale(540 256)">
<stop stop-color="#2DD4BF"/>
<stop offset="1" stop-color="#2DD4BF" stop-opacity="0"/>
</radialGradient>
<radialGradient id="paint4_radial_1722_311" cx="0" cy="0" r="1" gradientUnits="userSpaceOnUse" gradientTransform="translate(-211 106) rotate(-180) scale(590 256)">
<stop stop-color="#9065F5"/>
<stop offset="1" stop-color="#9065F5" stop-opacity="0"/>
</radialGradient>
<radialGradient id="paint5_radial_1722_311" cx="0" cy="0" r="1" gradientUnits="userSpaceOnUse" gradientTransform="translate(375 23.5) rotate(1.59397) scale(1016.39 222.072)">
<stop stop-color="#9065F5"/>
<stop offset="0.998016" stop-color="#9065F5" stop-opacity="0"/>
</radialGradient>
<radialGradient id="paint6_radial_1722_311" cx="0" cy="0" r="1" gradientUnits="userSpaceOnUse" gradientTransform="translate(292.5 6) rotate(5.04773) scale(251.475 173.189)">
<stop stop-color="#9065F5"/>
<stop offset="0.998016" stop-color="#9065F5" stop-opacity="0"/>
</radialGradient>
<linearGradient id="paint7_linear_1722_311" x1="356.994" y1="48.2924" x2="356.994" y2="144.292" gradientUnits="userSpaceOnUse">
<stop stop-color="#4DD684"/>
<stop offset="1" stop-color="#3FCC78"/>
</linearGradient>
<clipPath id="clip0_1722_311">
<path d="M0 32C0 14.3269 14.3269 0 32 0H682C699.673 0 714 14.3269 714 32V165H0V32Z" fill="white"/>
</clipPath>
<clipPath id="clip1_1722_311">
<rect x="309" y="48.2922" width="96" height="96" rx="8" fill="white"/>
</clipPath>
</defs>
</svg>
